<svg width="1024" height="1024" viewBox="0 0 1024 1024" fill="none" xmlns="http://www.w3.org/2000/svg">
<circle cx="512.04" cy="512.04" r="470.304" fill="black" stroke="#8E8E8E" stroke-width="1.472"/>
<circle cx="512.04" cy="512.041" r="412.437" fill="black" stroke="#8E8E8E" stroke-width="1.472"/>
<circle cx="512.04" cy="512.04" r="354.569" fill="black" stroke="#8E8E8E" stroke-width="1.472"/>
<circle cx="514.355" cy="514.354" r="294.387" fill="black" stroke="#8E8E8E" stroke-width="1.472"/>
<circle cx="508.568" cy="508.568" r="230.733" fill="black" stroke="#8E8E8E" stroke-width="1.472"/>
<circle cx="508.568" cy="508.568" r="172.866" fill="black" stroke="#8E8E8E" stroke-width="1.472"/>
<circle cx="508.568" cy="508.569" r="114.999" fill="black" stroke="#8E8E8E" stroke-width="1.472"/>
<circle cx="509.725" cy="508.568" r="57.1313" fill="black" stroke="#8E8E8E" stroke-width="1.472"/>
<path d="M508.568 41L508.568 506.253" stroke="#8E8E8E" stroke-width="2.944"/>
<path d="M508.568 925.212L508.568 983.079" stroke="#8E8E8E" stroke-width="1.472"/>
<path d="M840.727 175.252L800.219 215.759" stroke="#8E8E8E" stroke-width="1.472"/>
<path d="M177.878 177.567L219.542 219.231" stroke="#8E8E8E" stroke-width="1.472"/>
<path d="M983.08 507.411H925.213" stroke="#8E8E8E" stroke-width="1.472"/>
<path d="M41 507.411H98.8673" stroke="#8E8E8E" stroke-width="1.472"/>
<path d="M844.198 844.199L803.691 803.692" stroke="#8E8E8E" stroke-width="1.472"/>
<path d="M177.878 836.395L211.441 802.831" stroke="#8E8E8E" stroke-width="1.472"/>
<path d="M830.311 249.322L785.174 285.2" stroke="#8E8E8E" stroke-width="1.472"/>
<path d="M915.954 598.841L859.244 586.11" stroke="#8E8E8E" stroke-width="1.472"/>
<path d="M690.271 883.548L665.967 832.625" stroke="#8E8E8E" stroke-width="1.472"/>
<path d="M191.455 252.794L236.592 288.672" stroke="#8E8E8E" stroke-width="1.472"/>
<path d="M109.283 597.683L164.836 584.952" stroke="#8E8E8E" stroke-width="1.472"/>
<path d="M328.022 881.233L353.483 829.153" stroke="#8E8E8E" stroke-width="1.472"/>
<path d="M208.815 333.809L260.896 363.9" stroke="#8E8E8E" stroke-width="1.472"/>
<path d="M816.422 330.337L765.499 359.271" stroke="#8E8E8E" stroke-width="1.472"/>
<path d="M206.5 682.17L255.109 654.394" stroke="#8E8E8E" stroke-width="1.472"/>
<path d="M821.052 686.8L771.286 659.023" stroke="#8E8E8E" stroke-width="1.472"/>
<path d="M508.568 862.715L508.568 809.477" stroke="#8E8E8E" stroke-width="1.472"/>
<path d="M235.434 418.295L289.83 435.655" stroke="#8E8E8E" stroke-width="1.472"/>
<path d="M792.118 413.666L727.306 434.498" stroke="#8E8E8E" stroke-width="1.472"/>
<path d="M333.809 746.981L370.844 694.901" stroke="#8E8E8E" stroke-width="1.472"/>
<path d="M687.957 751.611L645.135 694.901" stroke="#8E8E8E" stroke-width="1.472"/>
<path d="M608.1 564.121L658.215 593.055" stroke="#8E8E8E" stroke-width="1.472"/>
<path d="M358.113 594.212L408.227 565.278" stroke="#8E8E8E" stroke-width="1.472"/>
<path d="M508.568 566.435L508.568 623.145" stroke="#8E8E8E" stroke-width="1.472"/>
<path d="M508.568 682.17L508.568 738.88" stroke="#8E8E8E" stroke-width="1.472"/>
<path d="M508.568 681.012L508.568 738.879" stroke="#8E8E8E" stroke-width="1.472"/>
<path d="M277.099 506.253L334.966 506.253" stroke="#8E8E8E" stroke-width="1.472"/>
<path d="M682.17 506.253L740.037 506.253" stroke="#8E8E8E" stroke-width="1.472"/>
</svg>
